#tb 0: 1/25
#media_type 0: video
#codec_id 0: rawvideo
#dimensions 0: 256x288
#sar 0: 1/1
0,          0,          0,        1,    73728, 0xee7278e1
0,          1,          1,        1,    73728, 0x2dfc78e1
0,          2,          2,        1,    73728, 0x643978e1
0,          3,          3,        1,    73728, 0x0a8b78e1
0,          4,          4,        1,    73728, 0xc06878e1
0,          5,          5,        1,    73728, 0x05d178e1
0,          6,          6,        1,    73728, 0x8fc178e1
0,          7,          7,        1,    73728, 0xe0e278e1
0,          8,          8,        1,    73728, 0xdb4278e1
0,          9,          9,        1,    73728, 0x034b78e1
0,         10,         10,        1,    73728, 0x32ce78e1
0,         11,         11,        1,    73728, 0x2bbf78e1
0,         12,         12,        1,    73728, 0xfb9878e1
0,         13,         13,        1,    73728, 0x027478e1
0,         14,         14,        1,    73728, 0xdcbe78e1
0,         15,         15,        1,    73728, 0x067778e1
0,         16,         16,        1,    73728, 0xa41178e1
0,         17,         17,        1,    73728, 0x078b78e1
0,         18,         18,        1,    73728, 0x030e78e1
0,         19,         19,        1,    73728, 0xbc0778e1
0,         20,         20,        1,    73728, 0xbc1d78e1
0,         21,         21,        1,    73728, 0xd03878e1
0,         22,         22,        1,    73728, 0x46af78e1
0,         23,         23,        1,    73728, 0x4c4c78e1
0,         24,         24,        1,    73728, 0x333078e1
0,         25,         25,        1,    73728, 0x0ef578e1
0,         26,         26,        1,    73728, 0xa2af78e1
0,         27,         27,        1,    73728, 0x642b78e1
0,         28,         28,        1,    73728, 0x51bc78e1
0,         29,         29,        1,    73728, 0x77c078e1
0,         30,         30,        1,    73728, 0x6f9f78e1
0,         31,         31,        1,    73728, 0xf1c478e1
0,         32,         32,        1,    73728, 0x15fc78e1
0,         33,         33,        1,    73728, 0x2d9978e1
0,         34,         34,        1,    73728, 0xa2c878e1
0,         35,         35,        1,    73728, 0x632b78e1
0,         36,         36,        1,    73728, 0x7a1778e1
0,         37,         37,        1,    73728, 0x287478e1
0,         38,         38,        1,    73728, 0x4b8578e1
0,         39,         39,        1,    73728, 0x9ed878e1
0,         40,         40,        1,    73728, 0xd35378e1
0,         41,         41,        1,    73728, 0x263278e1
0,         42,         42,        1,    73728, 0xe10978e1
0,         43,         43,        1,    73728, 0xba8178e1
0,         44,         44,        1,    73728, 0x2b9278e1
0,         45,         45,        1,    73728, 0x362278e1
0,         46,         46,        1,    73728, 0x8c9378e1
0,         47,         47,        1,    73728, 0xd97a78e1
0,         48,         48,        1,    73728, 0x51ec78e1
0,         49,         49,        1,    73728, 0xb06678e1
